<?xml version="1.0" standalone="no"?>
<!DOCTYPE svg PUBLIC "-//W3C//DTD SVG 20010904//EN"
 "http://www.w3.org/TR/2001/REC-SVG-20010904/DTD/svg10.dtd">
<svg version="1.0" xmlns="http://www.w3.org/2000/svg"
 width="826.000000pt" height="550.000000pt" viewBox="0 0 826.000000 550.000000"
 preserveAspectRatio="xMidYMid meet">
<metadata>
Created by potrace 1.16, written by Peter Selinger 2001-2019
</metadata>
<g transform="translate(0.000000,550.000000) scale(0.100000,-0.100000)"
fill="#000000" stroke="none">
<path d="M4115 5491 c-3 -6 -21 -57 -39 -114 -86 -262 -329 -723 -568 -1074
l-90 -131 33 -49 c75 -110 181 -243 193 -243 23 0 261 320 419 560 27 41 54
75 60 75 6 0 50 -57 97 -127 97 -145 372 -517 381 -518 7 0 135 165 187 242
18 26 32 53 32 61 0 8 -33 62 -74 119 -106 149 -267 421 -384 648 -114 222
-171 353 -205 469 -25 86 -31 99 -42 82z"/>
<path d="M3308 4028 c-118 -145 -363 -509 -446 -663 -127 -233 -168 -399 -159
-655 6 -171 30 -291 86 -434 92 -231 260 -464 432 -600 146 -116 348 -220 525
-271 92 -27 214 -43 213 -29 0 5 -66 52 -147 104 -122 79 -169 117 -277 225
-76 75 -159 170 -198 225 -134 191 -238 429 -272 624 -17 101 -20 267 -5 347
12 66 136 319 220 447 l60 94 41 -59 c37 -54 57 -82 169 -248 23 -33 71 -107
108 -165 63 -98 416 -624 446 -663 7 -9 20 -15 27 -12 8 3 39 47 71 98 82 134
693 1030 704 1034 24 8 198 -304 256 -459 30 -78 32 -91 31 -213 -1 -327 -135
-667 -375 -945 -126 -145 -254 -250 -498 -406 -41 -26 -43 -29 -21 -32 108
-16 441 107 633 234 94 63 330 298 391 391 146 221 239 513 240 753 1 273 -92
509 -355 903 -99 150 -287 405 -302 410 -11 4 -304 -394 -745 -1014 -19 -27
-38 -46 -42 -43 -5 2 -32 39 -62 82 -81 117 -687 955 -702 970 -10 11 -19 6
-47 -30z"/>
<path d="M4036 3910 c-99 -39 -150 -115 -151 -225 0 -81 17 -124 73 -180 59
-59 87 -70 177 -70 93 0 144 22 193 81 71 86 68 244 -6 326 -76 84 -181 109
-286 68z"/>
<path d="M1405 946 c-146 -48 -240 -149 -280 -303 -9 -33 -15 -101 -15 -163 0
-170 33 -264 124 -355 96 -96 243 -140 398 -118 227 32 359 186 374 436 14
225 -69 393 -234 474 -74 37 -78 38 -201 40 -83 2 -140 -2 -166 -11z m243
-168 c44 -13 98 -62 122 -108 60 -117 44 -322 -31 -413 -122 -148 -359 -92
-415 98 -22 79 -16 232 13 295 55 122 173 170 311 128z"/>
<path d="M7688 941 c-75 -24 -116 -51 -171 -110 -85 -91 -121 -194 -121 -346
0 -298 182 -485 472 -485 106 0 281 56 359 116 l33 25 0 190 0 189 -205 0
-205 0 0 -80 0 -80 105 0 105 0 0 -59 0 -60 -63 -31 c-163 -80 -318 -29 -377
126 -28 75 -31 225 -6 293 39 107 121 163 238 163 58 1 75 -3 114 -28 28 -17
55 -45 68 -69 11 -22 22 -42 23 -44 1 -2 45 5 98 15 l96 18 -7 30 c-10 49 -55
125 -93 158 -19 17 -60 43 -91 57 -49 22 -70 26 -185 28 -106 3 -141 0 -187
-16z"/>
<path d="M0 485 l0 -465 90 0 90 0 1 343 1 342 85 -343 85 -343 96 3 96 3 82
325 82 325 1 -327 1 -328 95 0 95 0 0 465 0 466 -147 -3 -147 -3 -77 -295
c-43 -162 -78 -297 -79 -300 -1 -4 -128 467 -154 573 l-6 27 -145 0 -145 0 0
-465z"/>
<path d="M2210 486 l0 -466 100 0 100 0 0 191 0 191 65 -4 c44 -3 73 -10 92
-24 16 -11 79 -96 141 -187 l113 -167 115 0 c62 0 114 2 114 5 0 10 -171 279
-197 310 -14 16 -43 45 -65 63 -31 24 -36 32 -22 32 30 1 106 38 137 68 51 48
71 99 71 182 1 87 -21 146 -74 197 -62 60 -94 66 -407 71 l-283 4 0 -466z
m510 281 c34 -17 62 -76 54 -115 -8 -40 -45 -78 -85 -86 -18 -3 -87 -6 -155
-6 l-124 0 0 110 0 110 143 0 c93 0 151 -5 167 -13z"/>
<path d="M3210 486 l0 -466 100 0 100 0 0 174 0 174 163 3 c160 4 163 4 217
35 98 55 150 168 136 294 -8 70 -48 153 -90 185 -72 55 -92 58 -368 63 l-258
4 0 -466z m467 268 c15 -11 34 -39 42 -61 13 -36 12 -43 -5 -78 -33 -67 -58
-78 -189 -83 l-115 -5 0 128 0 127 119 -4 c102 -3 124 -6 148 -24z"/>
<path d="M4140 485 l0 -465 100 0 100 0 0 200 0 200 175 0 175 0 0 -200 0
-200 100 0 100 0 0 465 0 465 -100 0 -100 0 0 -180 0 -180 -175 0 -175 0 0
180 0 180 -100 0 -100 0 0 -465z"/>
<path d="M5990 485 l0 -465 100 0 100 0 0 465 0 465 -100 0 -100 0 0 -465z"/>
<path d="M6430 485 l0 -465 90 0 90 0 0 292 0 292 178 -290 179 -289 101 -3
102 -3 0 466 0 465 -95 0 -95 0 -2 -294 -3 -293 -180 293 -180 294 -92 0 -93
0 0 -465z"/>
<path d="M5150 480 l0 -460 325 0 325 0 0 80 0 80 -230 0 -230 0 0 380 0 380
-95 0 -95 0 0 -460z"/>
</g>
</svg>
