<?xml version="1.0" standalone="no"?>
<!DOCTYPE svg PUBLIC "-//W3C//DTD SVG 20010904//EN"
 "http://www.w3.org/TR/2001/REC-SVG-20010904/DTD/svg10.dtd">
<svg version="1.0" xmlns="http://www.w3.org/2000/svg"
 width="458.000000pt" height="661.000000pt" viewBox="0 0 458.000000 661.000000"
 preserveAspectRatio="xMidYMid meet">

<g transform="translate(0.000000,661.000000) scale(0.100000,-0.100000)"
fill="#000000" stroke="none">
<path d="M2225 6446 c-63 -200 -126 -349 -265 -631 -226 -458 -469 -870 -729
-1235 -33 -47 -60 -91 -61 -98 0 -22 222 -334 309 -432 l31 -35 41 45 c92 100
387 506 591 814 66 100 122 183 124 185 10 10 54 -44 131 -162 115 -175 224
-328 451 -631 l195 -260 24 30 c52 62 230 303 273 368 25 37 44 75 42 83 -2 9
-59 95 -127 192 -134 191 -377 589 -501 821 -235 442 -389 783 -440 975 -14
55 -30 104 -34 109 -5 5 -29 -57 -55 -138z"/>
<path d="M998 4263 c-40 -42 -192 -254 -405 -563 -450 -654 -584 -994 -584
-1480 0 -336 67 -620 222 -939 143 -295 370 -589 604 -781 293 -240 793 -463
1087 -486 l83 -6 -221 149 c-122 82 -260 181 -305 220 -104 88 -283 271 -369
378 -163 200 -350 525 -429 745 -86 240 -121 419 -128 645 -6 196 6 316 43
414 64 171 309 613 395 714 l41 48 57 -83 c31 -46 85 -120 118 -166 34 -45 76
-109 94 -142 17 -32 46 -76 64 -97 18 -21 56 -79 86 -128 101 -173 807 -1216
827 -1223 6 -2 31 27 54 65 64 103 444 671 734 1098 426 626 459 674 464 675
22 1 199 -290 300 -495 148 -300 172 -384 173 -605 0 -383 -138 -845 -359
-1195 -230 -366 -586 -709 -969 -934 -146 -85 -145 -93 8 -71 277 40 697 223
948 412 111 84 374 341 469 459 201 250 359 599 435 959 32 153 45 431 26 574
-46 343 -205 689 -562 1224 -173 259 -453 642 -475 649 -8 3 -903 -1230 -1173
-1615 -37 -53 -60 -77 -74 -77 -15 0 -45 35 -106 122 -65 93 -1049 1456 -1123
1556 -12 16 -16 15 -50 -20z"/>
<path d="M2227 4080 c-21 -6 -71 -25 -110 -43 -270 -125 -290 -495 -36 -669
92 -63 202 -82 312 -53 161 42 253 139 278 294 13 81 -4 208 -36 270 -69 136
-270 235 -408 201z"/>
</g>
</svg>
